<svg xmlns="http://www.w3.org/2000/svg" class="Path_32" viewBox="0 0 71.634 13.888" fill="#410099" height="24" widht="88">
	<path id="Path_32" d="M 71.63433074951172 13.81346797943115 L 70.30763244628906 13.81346797943115 L 70.27830505371094 13.77720546722412 L 70.24147033691406 13.73187637329102 L 65.25833892822266 7.574231624603271 L 60.27500152587891 13.73187637329102 L 60.23835754394531 13.77720546722412 L 60.20903778076172 13.81346797943115 L 58.90047073364258 13.81346797943115 L 59.02912521362305 13.65414142608643 L 59.19018936157227 13.45507717132568 L 64.59479522705078 6.766984939575195 L 59.47914123535156 0.4330392181873322 L 59.31807708740234 0.2339762151241302 L 59.18941879272461 0.07445573806762695 L 60.51650238037109 0.07445573806762695 L 60.54582595825195 0.110719159245491 L 60.58247375488281 0.156241312623024 L 65.26759338378906 5.950479507446289 L 69.96196746826172 0.156241312623024 L 69.99861907958984 0.110719159245491 L 70.02812194824219 0.07445573806762695 L 71.34577178955078 0.07445573806762695 L 71.21710968017578 0.2339762151241302 L 71.05622863769531 0.4330392181873322 L 65.94039154052734 6.766984939575195 L 71.34480285644531 13.45507717132568 L 71.50567626953125 13.65414142608643 L 71.63433074951172 13.81346797943115 Z M 55.51485443115234 0.07445573806762695 L 55.48534393310547 0.110719159245491 L 55.44869613647461 0.156241312623024 L 50.75431823730469 5.950479507446289 L 46.0692024230957 0.156241312623024 L 46.03235626220703 0.110719159245491 L 46.00303649902344 0.07445573806762695 L 44.67614364624023 0.07445573806762695 L 44.80480575561523 0.2339762151241302 L 44.96567153930664 0.4330392181873322 L 50.08132171630859 6.766984939575195 L 44.67691040039063 13.45507717132568 L 44.5158576965332 13.65414142608643 L 44.3871955871582 13.81346797943115 L 45.69557189941406 13.81346797943115 L 45.72489166259766 13.77720546722412 L 45.7617301940918 13.73187637329102 L 56.54277038574219 0.4330392181873322 L 56.70383071899414 0.2339762151241302 L 56.83248519897461 0.07445573806762695 L 55.51485443115234 0.07445573806762695 Z M 32.99488830566406 12.77919006347656 L 32.99488830566406 0.07445573806762695 L 31.95115661621094 0.07445573806762695 L 31.95115661621094 13.81346797943115 L 41.16341781616211 13.81346797943115 L 41.16341781616211 12.77919006347656 L 32.99488830566406 12.77919006347656 Z M 28.30822372436523 13.67632389068604 L 28.23280906677246 13.50484371185303 L 22.40596961975098 0.2461283057928085 L 22.37182998657227 0.1683934330940247 L 22.3396167755127 0.09548080712556839 L 22.31376838684082 0.03722786903381348 L 21.45713996887207 0.03722786903381348 L 21.43148612976074 0.09567368775606155 L 21.39946937561035 0.1689721047878265 L 15.54813385009766 13.50484371185303 L 15.4729061126709 13.67651653289795 L 15.412917137146 13.81346797943115 L 16.53978538513184 13.81346797943115 L 16.56543731689453 13.75482940673828 L 16.59745597839355 13.68172454833984 L 21.88150024414063 1.638219237327576 L 27.17441558837891 13.68191814422607 L 27.20662879943848 13.7550220489502 L 27.23208999633789 13.81346797943115 L 28.36841011047363 13.81346797943115 L 28.30822372436523 13.67632389068604 Z M 12.37103366851807 10.692307472229 L 11.882248878479 10.33391666412354 L 11.77673816680908 10.25656795501709 L 11.69244384765625 10.19484329223633 L 11.63631343841553 10.28318691253662 L 11.56629371643066 10.39371109008789 L 11.49222469329834 10.51041126251221 C 10.57483673095703 11.95573902130127 8.817797660827637 12.85364532470703 6.906830787658691 12.85364532470703 C 3.514658451080322 12.85364532470703 1.052989363670349 10.36825084686279 1.052989363670349 6.943865776062012 C 1.052989363670349 3.519865989685059 3.514658451080322 1.034471869468689 6.906830787658691 1.034471869468689 C 8.832262992858887 1.034471869468689 10.5470609664917 1.911159157752991 11.49357509613037 3.379827499389648 L 11.56494331359863 3.490932703018188 L 11.63284206390381 3.596250534057617 L 11.68685150146484 3.68035101890564 L 11.76979446411133 3.62421989440918 L 11.87356853485107 3.554007768630981 L 12.37624168395996 3.21394157409668 L 12.47480773925781 3.147201776504517 L 12.55331516265869 3.093964338302612 L 12.50239086151123 3.013721227645874 L 12.43854522705078 2.913418292999268 L 12.37122631072998 2.807328462600708 C 11.27271556854248 1.075750470161438 9.178887367248535 0 6.906830787658691 0 C 2.969356536865234 0 0 2.98517370223999 0 6.943865776062012 C 0 10.90275096893311 2.969356536865234 13.88811779022217 6.906830787658691 13.88811779022217 C 9.176573753356934 13.88811779022217 11.26673412322998 12.81583786010742 12.36196613311768 11.08985424041748 L 12.42677879333496 10.98800849914551 L 12.48811721801758 10.89117813110352 L 12.53730487823486 10.81402206420898 L 12.46342849731445 10.7598180770874 L 12.37103366851807 10.692307472229 Z">
	</path>
</svg>